<?xml version="1.0" standalone="no"?>
<!DOCTYPE svg PUBLIC "-//W3C//DTD SVG 20010904//EN"
 "http://www.w3.org/TR/2001/REC-SVG-20010904/DTD/svg10.dtd">
<svg version="1.0" xmlns="http://www.w3.org/2000/svg"
 width="413.000000pt" height="413.000000pt" viewBox="0 0 413.000000 413.000000"
 preserveAspectRatio="xMidYMid meet">
<metadata>
Created by potrace 1.11, written by Peter Selinger 2001-2013
</metadata>
<g transform="translate(0.000000,413.000000) scale(0.100000,-0.100000)"
fill="#000000" stroke="none">
<path d="M0 3920 l0 -211 118 5 c64 2 118 5 118 5 1 1 2 93 3 206 l2 205 -121
0 -120 0 0 -210z"/>
<path d="M579 3793 c0 -186 -5 -374 -10 -418 -6 -44 -11 -91 -13 -105 -2 -14
-4 -38 -5 -55 -1 -26 -3 -28 -12 -12 -6 10 -8 25 -5 33 3 8 1 14 -4 14 -6 0
-10 -18 -10 -40 l0 -40 55 0 55 0 0 225 0 225 100 0 c55 0 100 -4 100 -8 0 -5
-7 -17 -15 -28 -8 -10 -15 -37 -15 -60 0 -22 -9 -69 -21 -104 -36 -112 -35
-387 3 -483 18 -46 3 -52 -145 -52 -73 0 -246 -1 -384 -3 l-253 -2 0 -1440 0
-1440 34 0 33 0 6 84 c3 46 2 97 -3 112 -4 16 -9 25 -11 19 -1 -5 -5 8 -8 30
-4 23 -11 39 -18 38 -9 -2 -12 30 -10 122 1 69 5 125 9 125 5 0 8 54 8 120 0
66 -4 120 -9 120 -4 0 -4 24 1 52 6 29 7 72 4 96 -3 25 -2 41 3 37 16 -9 21
26 17 108 -3 49 -1 77 6 77 7 0 8 23 4 68 -4 37 -7 79 -7 94 0 16 -4 28 -10
28 -6 0 -5 6 3 15 36 40 41 50 42 93 1 26 7 47 14 50 7 2 10 8 6 13 -3 5 2 9
10 9 9 0 16 -5 16 -10 0 -6 11 -8 26 -4 23 6 25 4 20 -14 -4 -11 -3 -23 2 -26
5 -3 8 -17 7 -30 -2 -14 3 -30 11 -36 13 -11 20 -232 14 -482 -1 -44 3 -79 9
-83 12 -7 15 -45 3 -45 -4 0 -6 -20 -4 -45 2 -25 8 -45 13 -45 5 0 9 -21 9
-46 0 -32 -3 -43 -12 -38 -8 5 -9 0 -4 -17 24 -78 29 -123 18 -183 -7 -37 -8
-62 -2 -64 5 -2 7 -41 4 -90 -2 -48 -6 -124 -9 -169 l-4 -83 46 0 46 0 -6 99
c-10 147 -9 1413 1 1423 5 5 190 9 413 9 l404 0 35 -43 c19 -24 70 -80 113
-125 49 -52 76 -88 71 -95 -5 -10 -4 -10 6 -1 10 9 18 8 38 -7 14 -11 31 -20
38 -20 8 0 14 -4 14 -8 0 -12 137 -77 229 -108 l83 -28 -44 -41 c-157 -144
-263 -252 -338 -343 -52 -63 -134 -246 -171 -382 -23 -85 -39 -330 -22 -330 7
0 11 41 11 108 1 155 44 318 125 479 58 113 250 327 427 475 337 281 387 313
490 313 54 0 78 -6 140 -36 144 -69 222 -129 380 -294 101 -105 340 -414 340
-439 0 -3 15 -29 32 -58 18 -29 40 -65 48 -80 8 -14 33 -53 55 -85 21 -32 47
-74 56 -93 9 -19 36 -78 61 -130 25 -52 51 -110 58 -127 l12 -33 349 0 349 0
0 756 c0 709 -1 758 -17 771 -17 14 -17 14 0 9 13 -4 17 0 17 22 0 15 -4 22
-8 16 -18 -28 -69 -17 -117 26 -32 29 -150 90 -173 90 -11 0 -36 9 -54 19 -45
26 -333 121 -367 121 -26 0 -51 10 -51 21 0 5 163 9 379 9 l380 0 4 -47 c2
-27 4 205 5 515 l2 562 -396 0 c-371 0 -395 1 -392 18 3 16 29 17 396 15 243
-1 392 2 392 7 0 6 -102 11 -257 12 -386 2 -513 5 -520 12 -4 3 2 6 13 6 16 0
17 2 4 10 -10 7 8 9 60 9 41 -1 216 0 388 1 l312 3 0 34 0 33 -177 0 c-172 1
-324 8 -332 16 -2 2 112 5 255 5 142 1 246 5 229 9 l-30 7 30 5 c17 3 -43 6
-133 7 -103 0 -161 -3 -157 -9 3 -6 -16 -9 -49 -8 -30 1 -53 5 -50 10 3 4 -2
8 -10 8 -8 0 -18 -4 -21 -10 -3 -5 -14 -10 -23 -9 -14 0 -13 2 3 8 25 10 -97
20 -218 18 -83 -2 -87 -1 -87 19 0 12 -7 25 -16 28 -12 5 -13 10 -6 19 6 7 9
37 7 67 -2 30 -5 85 -7 122 -1 44 -6 69 -15 72 -7 3 -13 12 -13 21 0 8 -5 24
-10 35 -5 11 -14 28 -19 39 -6 10 -7 28 -4 40 3 14 0 23 -11 27 -9 3 -16 12
-16 19 0 10 51 13 245 11 245 -1 246 -1 251 21 3 12 3 27 -1 32 -4 7 -95 11
-270 11 l-263 0 -7 30 c-10 47 -34 88 -72 126 -18 19 -33 40 -31 47 2 7 -16
33 -39 57 -24 24 -43 46 -43 50 0 3 -18 19 -40 36 -22 16 -40 34 -40 39 0 6
-18 20 -40 33 l-39 22 -802 0 -801 0 -60 -40 c-33 -22 -64 -40 -69 -40 -5 0
-9 -4 -9 -9 0 -5 -8 -11 -17 -13 -10 -3 -25 -18 -33 -34 -32 -63 -74 -116
-106 -137 -19 -12 -34 -28 -34 -35 0 -7 -7 -15 -15 -18 -8 -4 -23 -23 -32 -43
-9 -20 -23 -40 -30 -44 -7 -4 -13 -15 -13 -22 0 -12 -18 -15 -87 -16 -49 -1
-101 -2 -118 -3 -34 -1 -48 28 -17 36 18 5 20 17 21 144 1 77 3 169 5 207 l5
67 -35 0 -34 0 -1 -337z m1838 -319 c29 -3 57 -12 63 -19 7 -8 13 -76 15 -171
5 -180 4 -178 99 -226 68 -34 147 -106 182 -164 36 -60 66 -195 62 -276 -3
-58 -1 -68 14 -68 20 0 46 36 82 115 56 123 66 139 110 173 22 17 42 22 88 22
56 0 61 -2 101 -43 53 -53 77 -121 77 -213 -2 -231 -101 -427 -254 -503 -83
-41 -112 -41 -119 -1 -11 53 -27 33 -27 -32 0 -84 -36 -298 -52 -314 -7 -8
-22 -15 -33 -17 -11 -2 -36 -11 -55 -19 -19 -9 -51 -19 -70 -23 -66 -13 -155
-46 -191 -69 -19 -13 -69 -41 -110 -61 -84 -43 -324 -207 -332 -229 -3 -7 -34
-35 -69 -62 -35 -27 -91 -72 -126 -101 -40 -34 -72 -53 -88 -53 -42 0 -173 48
-276 102 -80 42 -113 67 -187 142 -121 122 -146 155 -196 261 -66 141 -95 250
-116 439 -10 86 -14 105 -21 85 -9 -23 -10 -23 -24 -5 -20 28 -18 54 6 68 11
7 20 21 20 30 0 30 -15 20 -34 -24 -18 -40 -18 -42 -1 -75 10 -18 21 -33 25
-33 12 0 19 -37 9 -47 -6 -6 -4 -21 6 -39 15 -30 20 -74 8 -74 -10 0 -82 83
-88 103 -4 9 -10 17 -15 17 -14 0 -40 97 -49 189 -16 152 13 264 64 245 14 -6
16 -3 12 12 -7 23 -38 177 -44 222 -4 24 4 53 28 105 36 77 39 108 21 202 -7
33 -12 106 -12 163 0 97 1 103 23 111 56 22 107 33 128 28 12 -3 54 1 93 9 92
20 260 29 311 17 23 -6 53 -6 70 -1 17 5 67 16 113 24 46 8 95 20 110 25 15 6
58 15 96 20 38 5 75 14 82 20 11 9 18 9 28 0 10 -8 21 -9 41 -1 19 7 32 7 38
1 7 -7 17 -6 31 1 39 22 205 28 333 12z m-1850 -286 c-3 -8 -6 -5 -6 6 -1 11
2 17 5 13 3 -3 4 -12 1 -19z m3426 -105 c-7 -2 -19 -2 -25 0 -7 3 -2 5 12 5
14 0 19 -2 13 -5z m-415 -20 c-10 -2 -28 -2 -40 0 -13 2 -5 4 17 4 22 1 32 -1
23 -4z m-3561 -680 c-3 -10 -5 -2 -5 17 0 19 2 27 5 18 2 -10 2 -26 0 -35z
m3123 -305 c0 -25 49 -122 90 -179 37 -52 56 -62 167 -89 79 -19 267 -79 318
-100 11 -5 38 -16 59 -25 22 -8 36 -18 32 -22 -16 -16 -126 -43 -178 -43 -71
0 -261 32 -375 64 -106 30 -229 45 -330 42 -41 -2 -70 0 -66 4 8 8 132 46 168
52 15 3 17 5 5 9 -8 4 -39 0 -69 -7 -30 -8 -55 -13 -57 -11 -2 1 1 20 6 42 5
22 12 80 16 128 4 48 11 90 16 93 5 3 21 7 37 9 15 2 54 17 87 32 65 32 74 32
74 1z m-2121 -241 c6 -7 26 -59 46 -115 19 -56 44 -118 55 -137 l20 -35 -183
-1 c-100 -1 -283 -2 -407 -3 l-225 -1 -3 134 c-1 74 -7 140 -13 147 -15 18 -7
19 362 21 267 2 339 0 348 -10z"/>
<path d="M2053 3018 c-48 -51 -80 -104 -69 -115 5 -4 13 1 20 11 6 11 29 42
52 70 54 69 78 71 132 12 23 -25 42 -41 42 -34 0 6 -20 30 -44 54 -56 57 -80
57 -133 2z"/>
<path d="M1228 2923 c-14 -16 -28 -37 -32 -48 -4 -13 3 -9 21 13 40 46 69 43
140 -18 32 -27 61 -50 66 -50 16 0 5 18 -40 62 -79 76 -113 85 -155 41z"/>
<path d="M3068 2813 c-45 -7 -66 -44 -66 -113 1 -53 -4 -66 -36 -112 -20 -29
-36 -59 -36 -66 0 -7 15 -22 34 -33 50 -29 51 -44 6 -92 -43 -46 -48 -58 -25
-77 38 -31 94 -16 141 39 12 14 36 41 53 60 17 19 31 41 31 48 0 43 -57 122
-112 157 -20 12 -28 25 -28 45 0 39 6 41 56 24 57 -19 87 -11 108 29 l17 33
-6 -35 c-17 -96 -18 -94 14 -137 36 -49 48 -53 61 -19 20 53 -18 174 -65 210
-27 21 -100 49 -115 44 -3 0 -17 -3 -32 -5z m93 -33 c24 -14 24 -28 -1 -55
-20 -21 -22 -22 -75 -7 -42 12 -55 20 -55 34 0 32 87 51 131 28z m89 -94 c0
-7 3 -35 6 -62 l7 -49 -23 28 c-17 22 -21 35 -16 62 7 34 26 50 26 21z m-180
-108 c39 -39 70 -86 70 -109 0 -27 -116 -139 -144 -139 -41 0 -40 19 3 60 23
22 41 46 41 53 0 18 -42 67 -57 67 -24 0 -23 20 3 60 15 22 32 40 38 40 7 0
27 -15 46 -32z"/>
<path d="M2156 2598 c-54 -63 -44 -79 14 -22 27 27 50 52 50 57 0 20 -32 3
-64 -35z"/>
<path d="M1280 2505 c0 -8 6 -15 14 -15 8 0 35 -16 60 -35 51 -39 56 -41 56
-22 0 12 -104 87 -121 87 -5 0 -9 -7 -9 -15z"/>
<path d="M930 2424 c0 -8 5 -12 10 -9 6 3 10 10 10 16 0 5 -4 9 -10 9 -5 0
-10 -7 -10 -16z"/>
<path d="M3223 2418 c-6 -7 -13 -20 -17 -28 -3 -8 -15 -29 -25 -46 -11 -18
-16 -36 -11 -44 5 -8 20 9 44 52 20 36 36 68 36 71 0 11 -17 8 -27 -5z"/>
<path d="M943 2369 c-14 -37 -13 -41 6 -30 7 5 11 21 9 36 l-3 28 -12 -34z"/>
<path d="M885 2340 c-4 -17 -5 -34 -2 -36 2 -3 7 10 11 27 8 42 0 50 -9 9z"/>
<path d="M961 2323 c0 -4 4 -17 9 -28 8 -19 9 -19 9 2 1 12 -3 25 -9 28 -5 3
-10 3 -9 -2z"/>
<path d="M3002 2240 c-45 -7 -40 -26 6 -22 54 4 82 11 82 22 0 9 -27 9 -88 0z"/>
<path d="M1665 2174 c8 -20 15 -38 15 -40 0 -2 7 -4 15 -4 23 0 18 34 -8 58
-33 31 -39 27 -22 -14z"/>
<path d="M940 2090 c0 -5 5 -10 11 -10 5 0 7 5 4 10 -3 6 -8 10 -11 10 -2 0
-4 -4 -4 -10z"/>
<path d="M2549 1956 c-78 -39 -171 -76 -244 -96 -16 -4 -77 -22 -135 -38 -212
-60 -330 -80 -540 -91 -158 -9 -301 -2 -395 19 -46 10 -59 5 -22 -9 92 -35
483 -39 667 -7 243 42 523 128 693 212 57 28 57 28 57 9 0 -15 -35 -71 -72
-118 -50 -61 -225 -176 -338 -221 -36 -15 -74 -31 -85 -36 -61 -27 -175 -61
-252 -75 -111 -19 -188 -19 -283 0 -120 25 -137 27 -119 15 30 -18 123 -37
214 -45 148 -11 365 42 565 138 166 80 331 202 357 265 8 19 21 41 29 49 18
18 18 47 1 61 -10 9 -34 1 -98 -32z"/>
<path d="M1275 1620 c10 -16 148 -90 170 -90 19 0 19 0 0 14 -11 7 -31 17 -44
21 -14 4 -46 21 -72 36 -48 30 -64 36 -54 19z"/>
<path d="M3822 3659 c1 -259 6 -473 11 -476 4 -3 19 -2 31 1 l24 6 0 212 c1
154 -3 215 -11 221 -7 4 12 7 43 6 30 -1 90 -1 133 0 l77 1 0 30 0 30 -135 0
c-122 0 -161 8 -120 24 13 5 15 35 14 211 l-1 205 -34 0 -33 0 1 -471z"/>
<path d="M43 3672 l-43 -3 0 -256 c0 -229 2 -255 16 -249 9 3 61 6 117 6 l102
0 -3 202 c-1 112 0 213 3 225 5 22 10 23 133 25 123 3 127 4 130 26 3 17 -1
22 -20 22 -13 0 -106 1 -208 2 -102 2 -204 2 -227 0z"/>
<path d="M3787 3443 c-10 -9 -7 -74 3 -98 6 -14 9 -2 9 43 1 62 0 68 -12 55z"/>
<path d="M532 3310 c0 -14 2 -19 5 -12 2 6 2 18 0 25 -3 6 -5 1 -5 -13z"/>
<path d="M3783 3285 c0 -22 2 -30 4 -17 2 12 2 30 0 40 -3 9 -5 -1 -4 -23z"/>
<path d="M3786 3225 c-3 -8 -1 -15 4 -15 6 0 10 7 10 15 0 8 -2 15 -4 15 -2 0
-6 -7 -10 -15z"/>
<path d="M3831 3141 c-8 -5 5 -7 35 -4 27 3 51 7 53 9 9 8 -75 3 -88 -5z"/>
<path d="M3558 3133 c7 -3 16 -2 19 1 4 3 -2 6 -13 5 -11 0 -14 -3 -6 -6z"/>
<path d="M4040 2960 c-43 -7 -42 -7 23 -8 39 -1 67 2 67 8 0 11 -20 11 -90 0z"/>
<path d="M3928 2953 c7 -3 16 -2 19 1 4 3 -2 6 -13 5 -11 0 -14 -3 -6 -6z"/>
<path d="M4122 1700 c0 -19 2 -27 5 -17 2 9 2 25 0 35 -3 9 -5 1 -5 -18z"/>
<path d="M4121 1624 c0 -11 3 -14 6 -6 3 7 2 16 -1 19 -3 4 -6 -2 -5 -13z"/>
<path d="M1361 724 c0 -11 3 -14 6 -6 3 7 2 16 -1 19 -3 4 -6 -2 -5 -13z"/>
<path d="M30 430 c0 -11 5 -20 10 -20 6 0 10 9 10 20 0 11 -4 20 -10 20 -5 0
-10 -9 -10 -20z"/>
<path d="M30 353 c0 -10 5 -25 10 -33 7 -11 10 -7 10 18 0 17 -4 32 -10 32 -5
0 -10 -8 -10 -17z"/>
<path d="M2850 91 c0 -76 3 -91 16 -91 13 0 15 13 12 87 -2 58 -7 88 -15 91
-10 3 -13 -19 -13 -87z"/>
</g>
</svg>
